<?xml version="1.0" encoding="UTF-8"?>
<svg xmlns="http://www.w3.org/2000/svg" xmlns:xlink="http://www.w3.org/1999/xlink" width="px" height="px" viewBox="0 0 62 61" version="1.1">
<g id="surface1">
<path style=" stroke:none;fill-rule:evenodd;fill:rgb(100%,25.490196%,25.490196%);fill-opacity:1;" d="M 30.96875 0 C 48.074219 0 61.9375 13.640625 61.9375 30.46875 C 61.9375 47.296875 48.074219 60.941406 30.96875 60.941406 C 13.867188 60.941406 0 47.296875 0 30.46875 C 0 13.640625 13.867188 0 30.96875 0 Z M 37.023438 19.417969 C 38.410156 18.03125 40.664062 18.023438 42.058594 19.402344 C 43.449219 20.78125 43.457031 23.019531 42.070312 24.402344 L 35.992188 30.472656 L 42.078125 36.546875 C 43.453125 37.921875 43.433594 40.144531 42.035156 41.519531 C 40.640625 42.890625 38.394531 42.886719 37.019531 41.511719 L 30.972656 35.480469 L 24.914062 41.523438 C 23.527344 42.910156 21.277344 42.914062 19.882812 41.535156 C 18.488281 40.160156 18.480469 37.921875 19.867188 36.535156 L 25.949219 30.46875 L 19.863281 24.390625 C 18.488281 23.019531 18.507812 20.792969 19.902344 19.421875 C 21.300781 18.050781 23.546875 18.054688 24.921875 19.429688 L 30.96875 25.460938 Z M 37.023438 19.417969 "/>
</g>
</svg>
