<?xml version="1.0" encoding="UTF-8"?>
<svg xmlns="http://www.w3.org/2000/svg" xmlns:xlink="http://www.w3.org/1999/xlink" width="px" height="px" viewBox="0 0 48 48" version="1.1">
<g id="surface1">
<path style=" stroke:none;fill-rule:evenodd;fill:rgb(41.960784%,74.509804%,40%);fill-opacity:1;" d="M 24 0 C 37.253906 0 48 10.746094 48 24 C 48 37.253906 37.253906 48 24 48 C 10.746094 48 0 37.253906 0 24 C 0 10.746094 10.746094 0 24 0 Z M 13.382812 24.636719 C 13.703125 22.773438 15.835938 21.730469 17.515625 22.742188 C 17.667969 22.835938 17.816406 22.941406 17.949219 23.066406 L 17.964844 23.078125 C 18.71875 23.800781 19.5625 24.554688 20.402344 25.300781 L 21.121094 25.945312 L 29.652344 16.996094 C 30.160156 16.464844 30.535156 16.117188 31.296875 15.945312 C 33.914062 15.367188 35.757812 18.570312 33.902344 20.523438 L 23.269531 31.683594 C 22.265625 32.75 20.476562 32.847656 19.398438 31.828125 C 18.78125 31.253906 18.113281 30.671875 17.433594 30.085938 C 16.257812 29.0625 15.058594 28.023438 14.082031 26.992188 C 13.496094 26.40625 13.242188 25.445312 13.382812 24.636719 Z M 13.382812 24.636719 "/>
</g>
</svg>
