<svg viewBox="0 0 9390 9390" xmlns="http://www.w3.org/2000/svg" xmlns:xlink="http://www.w3.org/1999/xlink"><defs><linearGradient id="a" x1="5435" x2="2552" xlink:href="none" y1="8086" y2="6397"><stop offset="0" stop-color="#bf360c" stop-opacity=".4"/><stop offset=".33" stop-color="#bf360c" stop-opacity="0"/></linearGradient><linearGradient id="b" x1="1459" x2="4233" xlink:href="none" y1="3632" y2="2011"><stop offset="0" stop-color="#bf360c" stop-opacity=".2"/><stop offset=".66" stop-color="#bf360c" stop-opacity="0"/></linearGradient><linearGradient id="c" x1="5816" x2="2652" xlink:href="none" y1="8314" y2="6458"><stop offset="0" stop-color="#bf360c" stop-opacity=".2"/><stop offset=".33" stop-color="#bf360c" stop-opacity="0"/></linearGradient><linearGradient id="d" x1="5978" x2="6704" xlink:href="none" y1="2417" y2="5596"><stop offset="0" stop-color="#ea6100" stop-opacity=".3"/><stop offset=".66" stop-color="#ea6100" stop-opacity="0"/></linearGradient><linearGradient id="e" x1="5979" x2="6691" xlink:href="none" y1="2430" y2="5541"><stop offset="0" stop-color="#bf360c" stop-opacity=".3"/><stop offset=".66" stop-color="#bf360c" stop-opacity="0"/></linearGradient><linearGradient id="f" x1="1405" x2="4000" xlink:href="none" y1="3663" y2="2147"><stop offset="0" stop-color="#a52714" stop-opacity=".6"/><stop offset=".66" stop-color="#a52714" stop-opacity="0"/></linearGradient><linearGradient id="g" x1="350" x2="6413" xlink:href="none" y1="5107" y2="5107"><stop offset="0" stop-color="#f2a700" stop-opacity=".4"/><stop offset=".33" stop-color="#f19800" stop-opacity="0"/></linearGradient><radialGradient id="h" cx="1293.44" cy="56.19" gradientTransform="matrix(25 0 0 -25 -27825 4125)" r="166.25" xlink:href="none"><stop offset="0" stop-color="#bf360c" stop-opacity=".2"/><stop offset="1" stop-color="#bf360c" stop-opacity="0"/></radialGradient><radialGradient id="i" cx="1154.43" cy="70.88" r="154.31" xlink:href="#h"/><radialGradient id="j" cx="1300.69" cy="-23.27" r="173.74" xlink:href="#h"/><radialGradient id="k" cx="602.97" cy="103.52" gradientTransform="matrix(25 0 0 -25 -13425 4125)" r="349.48" xlink:href="none"><stop offset="0" stop-color="#fff" stop-opacity=".1"/><stop offset="1" stop-color="#fff" stop-opacity="0"/></radialGradient><clipPath id="l"><path d="m350 4700a4350 4350 0 1 1 8700 0 4350 4350 0 1 1 -8700 0z"/></clipPath><clipPath id="m"><use xlink:href="#q"/></clipPath><clipPath id="n"><use xlink:href="#p"/></clipPath><clipPath id="o"><path d="m2988 5690 1712-2967h4350v-2373h-8010v1994"/></clipPath><path id="p" d="m4700 2723 1713 2967-1923 3360h4560v-6327z"/><path id="q" d="m350 9050h4140l1922-1922v-1438h-3424l-2638-4525z"/><path id="r" d="m1040 350v5340h1947l1713-2967h4350v-2373z"/><use id="s" xlink:href="#q"/><use id="t" xlink:href="#p"/></defs><g clip-path="url(#l)"><use fill="url(#a)" xlink:href="#s"/><use fill="#f09300" xlink:href="#r"/><use fill="url(#b)" xlink:href="#r"/><path d="m3035 5670-1969-3375-30 50 1955 3352 43-25z" fill="#bf360c" fill-opacity=".15"/><use fill="#f4b400" xlink:href="#s"/><use fill="url(#c)" xlink:href="#s"/></g><path d="m6373 5754-40-23-1898 3320h57l1882-3296z" fill="#a52714" fill-opacity=".15"/><g clip-path="url(#l)"><g clip-path="url(#m)"><use fill="#ffcd40" xlink:href="#t"/><use fill="url(#d)" xlink:href="#t"/></g><use fill="#f7cb4d" xlink:href="#t"/><use fill="url(#e)" xlink:href="#t"/><g clip-path="url(#n)"><use fill="#f09300" xlink:href="#r"/><use fill="url(#f)" xlink:href="#r"/></g><path d="m4700 2723v1035l3875-1035z" fill="url(#h)"/><g clip-path="url(#o)"><use fill="url(#g)" xlink:href="#s"/></g><path d="m1040 2350 2830 2830-882 510z" fill="url(#i)"/><path d="m4494 9045 1036-3865 883 510-1920 3356z" fill="url(#j)"/><path d="m2723 4700a1977 1977 0 1 1 3954 0 1977 1977 0 0 1 -3954 0z" fill="#f5f5f5"/><path d="m3118 4700a1580 1580 0 1 1 3164 0 1580 1580 0 1 1 -3164 0z" fill="#f6bf26"/><g fill="#bf360c"><path d="m4700 2673a1977 1977 0 0 0 -1977 1978v50a1977 1977 0 0 1 1977-1978h4350v-50z" fill-opacity=".2"/><path d="m4750 2723h-25a1976 1976 0 0 1 0 3952h25a1977 1977 0 0 0 0-3955z" opacity=".1"/><path d="m4700 9000a4350 4350 0 0 0 4350-4325v25a4350 4350 0 1 1 -8700 0v-25a4350 4350 0 0 0 4350 4325z" fill-opacity=".15"/></g><g fill="#fff"><path d="m6410 5690a1974 1974 0 0 1 -3421 0l-2639-4475 2638 4525a1974 1974 0 0 0 3421 0v-50z" fill-opacity=".1"/><path d="m6430 5754a1971 1971 0 0 0 170-1584 1955 1955 0 0 1 -191 1517l-1919 3363h57l1883-3294zm-1730-5354a4350 4350 0 0 1 4350 4325v-25a4350 4350 0 1 0 -8700 0v25a4350 4350 0 0 1 4350-4325z" fill-opacity=".2"/></g><path d="m350 4700a4350 4350 0 1 1 8700 0 4350 4350 0 1 1 -8700 0z" fill="url(#k)"/></g></svg>