<svg height="48pt" viewBox="0 0 48 48" width="48pt" xmlns="http://www.w3.org/2000/svg" xmlns:xlink="http://www.w3.org/1999/xlink"><linearGradient id="a" gradientUnits="userSpaceOnUse" x1=".498214" x2="47.498214" y1="24" y2="24"><stop offset="0" stop-color="#d300dc"/><stop offset="1" stop-color="#8700ff"/></linearGradient><path d="m24.154 14.001-.028-2.5c3.265.033 6.404 1.349 8.714 3.659 2.34 2.34 3.66 5.53 3.66 8.84s-1.32 6.5-3.66 8.84c-2.245 2.245-5.273 3.552-8.439 3.654l-.027-2.501c2.515-.094 4.914-1.132 6.696-2.923 1.88-1.87 2.93-4.42 2.93-7.07s-1.05-5.2-2.93-7.07c-1.834-1.844-4.321-2.889-6.916-2.929zm.044 4.002.132 11.988c1.47-.081 2.868-.699 3.91-1.751 1.13-1.12 1.76-2.65 1.76-4.24s-.63-3.12-1.76-4.24c-1.073-1.083-2.524-1.707-4.042-1.757zm-.116-10.503-.033-3c5.153.013 10.093 2.072 13.741 5.71 3.65 3.66 5.71 8.62 5.71 13.79s-2.06 10.13-5.71 13.79c-3.547 3.537-8.315 5.581-13.312 5.704l-.033-3c4.209-.114 8.23-1.839 11.225-4.824 3.09-3.1 4.83-7.3 4.83-11.67s-1.74-8.57-4.83-11.67c-3.081-3.071-7.247-4.808-11.588-4.83zm-23.582 16.5c0-6.23 2.48-12.21 6.88-16.62 4.41-4.4 10.39-6.88 16.62-6.88s12.21 2.48 16.62 6.88c4.4 4.41 6.88 10.39 6.88 16.62s-2.48 12.21-6.88 16.62c-4.41 4.4-10.39 6.88-16.62 6.88s-12.21-2.48-16.62-6.88c-4.4-4.41-6.88-10.39-6.88-16.62z" fill="url(#a)" fill-rule="evenodd"/></svg>